<svg width="24" height="24" viewBox="0 0 24 24" fill="none" xmlns="http://www.w3.org/2000/svg">
<path d="M12 8.7225L13.08 11.2725L13.98 11.3475L15.8325 11.505L13.74 13.32L13.9425 14.205L14.3625 16.0125L12.7725 15.0525L12 14.5725L11.2275 15.0375L9.6375 15.9975L10.0575 14.19L10.26 13.305L8.1675 11.49L10.02 11.3325L10.92 11.2575L11.2725 10.425L12 8.7225ZM12 4.875L9.8925 9.8475L4.5 10.305L8.595 13.8525L7.365 19.125L12 16.3275L16.635 19.125L15.405 13.8525L19.5 10.305L14.1075 9.8475L12 4.875Z" fill="black"/>
</svg>
