<svg width="44" height="44" viewBox="0 0 44 44" fill="none" xmlns="http://www.w3.org/2000/svg">
<path d="M30.5613 24.0723C33.073 25.7773 34.833 28.0873 34.833 31.1673V36.6673H42.1663V31.1673C42.1663 27.1707 35.6213 24.8057 30.5613 24.0723Z" fill="#484848"/>
<path d="M27.4997 22.0007C31.5513 22.0007 34.833 18.719 34.833 14.6673C34.833 10.6157 31.5513 7.33398 27.4997 7.33398C26.638 7.33398 25.8313 7.51732 25.0613 7.77398C26.583 9.66232 27.4997 12.064 27.4997 14.6673C27.4997 17.2707 26.583 19.6723 25.0613 21.5607C25.8313 21.8173 26.638 22.0007 27.4997 22.0007Z" fill="#484848"/>
<path d="M16.4997 22.0007C20.5513 22.0007 23.833 18.719 23.833 14.6673C23.833 10.6157 20.5513 7.33398 16.4997 7.33398C12.448 7.33398 9.16634 10.6157 9.16634 14.6673C9.16634 18.719 12.448 22.0007 16.4997 22.0007ZM16.4997 11.0007C18.5163 11.0007 20.1663 12.6507 20.1663 14.6673C20.1663 16.684 18.5163 18.334 16.4997 18.334C14.483 18.334 12.833 16.684 12.833 14.6673C12.833 12.6507 14.483 11.0007 16.4997 11.0007Z" fill="#484848"/>
<path d="M16.4997 23.834C11.6047 23.834 1.83301 26.2907 1.83301 31.1673V36.6673H31.1663V31.1673C31.1663 26.2907 21.3947 23.834 16.4997 23.834ZM27.4997 33.0007H5.49967V31.1857C5.86634 29.8657 11.5497 27.5007 16.4997 27.5007C21.4497 27.5007 27.133 29.8657 27.4997 31.1673V33.0007Z" fill="#484848"/>
</svg>
